<svg xmlns="http://www.w3.org/2000/svg" version="1.1" xmlns:xlink="http://www.w3.org/1999/xlink" xmlns:svgjs="http://svgjs.dev/svgjs" width="128" height="128" viewBox="0 0 128 128"><g transform="matrix(0.8046875,0,0,0.8046875,12.491283371131601,12.506335372881367)"><svg viewBox="0 0 59 59" data-background-color="#ffffff" preserveAspectRatio="xMidYMid meet" height="128" width="128" xmlns="http://www.w3.org/2000/svg" xmlns:xlink="http://www.w3.org/1999/xlink"><g id="tight-bounds" transform="matrix(1,0,0,1,0.004993020419760796,-0.003629000000003657)"><svg viewBox="0 0 58.99001395916048 59.00725799999999" height="59.00725799999999" width="58.99001395916048"><g><svg viewBox="0 0 58.99001395916048 59.00725799999999" height="59.00725799999999" width="58.99001395916048"><g><svg viewBox="0 0 58.99001395916048 59.00725799999999" height="59.00725799999999" width="58.99001395916048"><g><svg viewBox="0 0 58.99001395916048 59.00725799999999" height="59.00725799999999" width="58.99001395916048"><g id="textblocktransform"><svg viewBox="0 0 58.99001395916048 59.00725799999999" height="59.00725799999999" width="58.99001395916048" id="textblock"><g><svg viewBox="0 0 58.99001395916048 59.00725799999999" height="59.00725799999999" width="58.99001395916048"><g><svg viewBox="0 0 58.99001395916048 59.00725799999999" height="59.00725799999999" width="58.99001395916048"><g><svg xmlns="http://www.w3.org/2000/svg" xmlns:xlink="http://www.w3.org/1999/xlink" version="1.1" x="0" y="0" viewBox="16.45526686770219 18.932613395966296 56.5508555812774 56.5673866040337" style="enable-background:new 0 0 91 91;" xml:space="preserve" height="59.00725799999999" width="58.99001395916048" class="icon-icon-0" data-fill-palette-color="accent" id="icon-0"><g fill="#398378" data-fill-palette-color="accent"><path d="M69.7 42c2-2.3 3.1-5.4 3.1-8.8 0-4.3-1.6-8.1-4.6-10.6-3-2.5-7.1-3.4-11.3-2.5-2.8 0.6-5.3 1.9-7.1 3.8-0.6-1.1-1.5-2.1-2.6-2.9-2.4-1.8-5.5-2.5-8.2-1.8-3.7 1-6.5 4.4-7.4 8.2-2.6-1.7-6-2.2-8.9-1-4.3 1.8-6.6 7.8-6.2 12.5 0.6 7.7 4 15.1 10.1 21.4 4.3-5.5 9.6-11 15.1-15.8 1.5-4.3 0.9-6.3 0-7.7-0.5-0.8-0.2-1.8 0.5-2.3 0.8-0.5 1.8-0.2 2.3 0.5 1.1 1.8 1.6 3.7 1.4 5.9 4.8-3.8 9.6-7.1 14-9.2 0.8-0.4 1.8-0.1 2.3 0.8 0.4 0.8 0.1 1.8-0.8 2.3-2.3 1.2-4.8 2.7-7.4 4.4 1.1 0.2 2.1 0.7 3.2 1.4 0.8 0.5 0.9 1.6 0.4 2.4-0.3 0.5-0.9 0.7-1.4 0.7-0.3 0-0.7-0.1-1-0.3-1.5-1-3-1.2-5.5-1-3.1 2.4-6.3 5.1-9.3 8 5.1 0.8 11.2 2.8 13.7 4.4 0.8 0.5 1 1.5 0.5 2.3-0.3 0.5-0.9 0.8-1.4 0.8-0.3 0-0.6-0.1-0.9-0.3-2.4-1.5-9.9-3.9-15-4.2-2.9 2.9-5.6 5.9-8 9l6.9 3.7c1.6 0.9 3.1 1.7 4.4 2.4C50 73.6 52.4 75 57 75.4c0.5 0 1 0.1 1.4 0.1 4.5 0 7.6-1.9 9.5-3.6 3-2.7 4.3-6.2 4.4-8.4 0-2.9-1.3-5.7-3.4-7.7 2-1.2 3.6-3.3 4-5.7C73.4 47.1 72.1 43.9 69.7 42z" fill="#398378" data-fill-palette-color="accent"></path><path d="M27.5 61.2c-0.3-0.3-0.5-0.5-0.8-0.8-1.4 1.8-2.7 3.6-3.9 5.4-0.5 0.8-0.3 1.8 0.5 2.3 0.3 0.2 0.6 0.3 0.9 0.3 0.5 0 1.1-0.3 1.4-0.7 1.2-1.7 2.5-3.5 3.9-5.3l-1.6-0.9C27.8 61.4 27.6 61.3 27.5 61.2z" fill="#398378" data-fill-palette-color="accent"></path></g></svg></g></svg></g></svg></g></svg></g></svg></g></svg></g></svg></g><defs></defs></svg><rect width="58.99001395916048" height="59.00725799999999" fill="none" stroke="none" visibility="hidden"></rect></g></svg></g></svg>