<svg xmlns="http://www.w3.org/2000/svg" version="1.1" xmlns:xlink="http://www.w3.org/1999/xlink" xmlns:svgjs="http://svgjs.dev/svgjs" width="2000" height="595" viewBox="0 0 2000 595"><g transform="matrix(1,0,0,1,-1.2121212121212466,0.7357472333208648)"><svg viewBox="0 0 396 118" data-background-color="#ffffff" preserveAspectRatio="xMidYMid meet" height="595" width="2000" xmlns="http://www.w3.org/2000/svg" xmlns:xlink="http://www.w3.org/1999/xlink"><g id="tight-bounds" transform="matrix(1,0,0,1,0.2400000000000091,-0.14591289669220942)"><svg viewBox="0 0 395.52 118.29182579338442" height="118.29182579338442" width="395.52"><g><svg viewBox="0 0 395.52 118.29182579338442" height="118.29182579338442" width="395.52"><g><svg viewBox="0 0 586.7910385009632 175.4970249379932" height="118.29182579338442" width="395.52"><g transform="matrix(1,0,0,1,191.27103850096321,54.23112802705748)"><svg viewBox="0 0 395.52 67.03476888387823" height="67.03476888387823" width="395.52"><g id="textblocktransform"><svg viewBox="0 0 395.52 67.03476888387823" height="67.03476888387823" width="395.52" id="textblock"><g><svg viewBox="0 0 395.52 67.03476888387823" height="67.03476888387823" width="395.52"><g transform="matrix(1,0,0,1,0,0)"><svg width="395.52" viewBox="1.45 -33.75 266.08 45.1" height="67.03476888387823" data-palette-color="#398378"><path d="M2.5-27.5Q2.5-28.2 2.93-28.63 3.35-29.05 4.1-29.4L4.1-29.4Q4.35-29.55 5.93-30.3 7.5-31.05 8.95-31.45L8.95-31.45Q9.4-32.45 10.33-33.1 11.25-33.75 12.7-33.75L12.7-33.75Q13.55-33.75 14.1-33.43 14.65-33.1 14.85-32.6L14.85-32.6Q16.7-33.2 19.3-33.2L19.3-33.2Q22.55-33.2 24.93-31.83 27.3-30.45 28.53-28.05 29.75-25.65 29.75-22.65L29.75-22.65Q29.75-22.05 29.6-21L29.6-21Q27.55-9.3 12.1-9.3L12.1-9.3Q10.7-9.3 10.05-9.35L10.05-9.35 9.4-6.95Q8.35-3.1 8.35-3L8.35-3Q7.95-1.25 7.13-0.3 6.3 0.65 4.45 0.65L4.45 0.65Q2.9 0.65 2.18 0.13 1.45-0.4 1.45-1.65L1.45-1.65Q1.45-2.2 1.6-2.7L1.6-2.7 7.65-26.05Q5.05-25.3 3.7-24L3.7-24Q3.15-24.6 2.83-25.58 2.5-26.55 2.5-27.5L2.5-27.5ZM11.1-14Q11.7-13.95 12.8-13.95L12.8-13.95Q17.55-13.95 20.33-15.75 23.1-17.55 23.9-21.3L23.9-21.3Q24.05-22.15 24.05-22.55L24.05-22.55Q24.05-25.35 22.5-26.73 20.95-28.1 18.15-28.1L18.15-28.1Q16.65-28.1 14.3-27.4L14.3-27.4Q12.35-19.65 11.1-14L11.1-14ZM37.15-1.9Q37.1-1.6 36.92-0.73 36.75 0.15 36.07 0.5 35.4 0.85 33.95 0.85L33.95 0.85Q32.3 0.85 31.55 0.5 30.8 0.15 30.8-1L30.8-1 33.2-10.55Q35.2-18.8 35.85-21.05L35.85-21.05 34.6-22.55Q34.45-22.7 34.45-22.9L34.45-22.9Q34.45-23.4 35.55-23.73 36.65-24.05 38.6-24.05L38.6-24.05Q40.35-24.05 40.95-23.08 41.55-22.1 41.7-20.55L41.7-20.55 41.35-19.25Q42.95-21.2 45.07-22.48 47.2-23.75 48.85-23.75L48.85-23.75Q51-23.75 52.2-23 53.4-22.25 53.4-21.05L53.4-21.05Q53.4-20 52.67-18.88 51.95-17.75 50.85-16.98 49.75-16.2 48.7-16.1L48.7-16.1Q47.7-16.1 47.35-16.35 47-16.6 47-17.1L47-17.1 47.3-18.75Q43.3-17.65 40.05-13.45L40.05-13.45 37.15-1.9ZM70.94-2.6Q71.05-1.3 71.3-0.25L71.3-0.25Q71.19 0.05 70.42 0.35 69.64 0.65 69.09 0.65L69.09 0.65Q67.3 0.65 66.52 0.13 65.75-0.4 65.75-1.45L65.75-1.45Q65.75-2.45 65.94-3.45L65.94-3.45Q64.84-1.95 62.72-0.98 60.59 0 59.3 0L59.3 0Q55.95 0 53.72-1.95 51.49-3.9 51.49-8.2L51.49-8.2Q51.49-12.25 53.42-15.83 55.34-19.4 58.74-21.58 62.14-23.75 66.3-23.75L66.3-23.75Q67.09-23.75 68.39-23.33 69.69-22.9 71.02-21.88 72.34-20.85 73.25-19.25L73.25-19.25Q73.64-19.25 74.19-18.85 74.75-18.45 74.75-18.05L74.75-18.05Q74.75-17.6 74.59-17.15L74.59-17.15 70.94-2.6ZM68.69-16.6Q68.39-17.7 67.52-18.45 66.64-19.2 65.94-19.2L65.94-19.2Q63.64-19.2 61.62-17.57 59.59-15.95 58.34-13.55 57.09-11.15 57.09-9L57.09-9Q57.09-6.9 57.59-5.55 58.09-4.2 59.55-4.2L59.55-4.2Q60.8-4.2 62.42-4.95 64.05-5.7 65.32-6.98 66.59-8.25 67-9.65L67-9.65 68.69-16.6ZM93.44-19.35Q92.84-19.65 91.94-19.65L91.94-19.65Q89.69-19.65 87.44-18.75 85.19-17.85 85.19-16.45L85.19-16.45Q85.19-15.45 86.09-14.85 86.99-14.25 88.94-13.5L88.94-13.5Q91.04-12.65 92.34-11.9 93.64-11.15 94.62-9.73 95.59-8.3 95.59-6.1L95.59-6.1Q95.59-2.5 92.62-0.58 89.64 1.35 84.64 1.35L84.64 1.35Q82.19 1.35 80.09 0.6 77.99-0.15 76.77-1.33 75.54-2.5 75.44-3.65L75.44-3.65Q75.44-4.85 76.49-5.63 77.54-6.4 79.44-6.65L79.44-6.65Q79.49-5.65 80.49-4.78 81.49-3.9 82.87-3.38 84.24-2.85 85.24-2.85L85.24-2.85Q86.94-2.85 88.34-3.78 89.74-4.7 89.74-5.95L89.74-5.95Q89.74-8.25 85.29-9.6L85.29-9.6Q82.44-10.45 80.92-12.3 79.39-14.15 79.39-16.2L79.39-16.2Q79.39-20.25 83.07-22.03 86.74-23.8 92.44-23.8L92.44-23.8Q95.64-23.8 97.39-23.05 99.14-22.3 99.14-20.45L99.14-20.45Q99.14-19.2 98.22-18.25 97.29-17.3 95.59-17.3L95.59-17.3Q94.09-17.3 93.67-17.53 93.24-17.75 93.19-18.3L93.19-18.3Q93.19-18.8 93.44-19.35L93.44-19.35ZM111.74 1.05Q105.79 1.05 102.84-2.8 99.89-6.65 99.89-13.25L99.89-13.25Q99.89-18.7 102.24-23.35 104.59-28 108.79-30.75 112.99-33.5 118.24-33.5L118.24-33.5Q123.34-33.5 126.41-30.03 129.49-26.55 129.49-19.65L129.49-19.65Q129.49-14.75 127.22-9.93 124.94-5.1 120.89-2.02 116.84 1.05 111.74 1.05L111.74 1.05ZM112.44-3.45Q114.89-3.45 117.24-6.2 119.59-8.95 121.06-13.25 122.54-17.55 122.54-22L122.54-22Q122.54-25.4 121.41-26.93 120.29-28.45 117.44-28.45L117.44-28.45Q114.29-28.45 111.84-25.7 109.39-22.95 108.04-18.85 106.69-14.75 106.69-10.9L106.69-10.9Q106.69-8.65 107.52-6.95 108.34-5.25 109.66-4.35 110.99-3.45 112.44-3.45L112.44-3.45ZM138.14-1.9Q138.09-1.6 137.91-0.73 137.74 0.15 137.06 0.5 136.39 0.85 134.94 0.85L134.94 0.85Q133.29 0.85 132.54 0.5 131.79 0.15 131.79-1L131.79-1 134.19-10.55Q136.19-18.8 136.84-21.05L136.84-21.05 135.59-22.55Q135.44-22.7 135.44-22.9L135.44-22.9Q135.44-23.4 136.54-23.73 137.64-24.05 139.59-24.05L139.59-24.05Q141.34-24.05 141.94-23.08 142.54-22.1 142.69-20.55L142.69-20.55 142.34-19.25Q143.94-21.2 146.06-22.48 148.19-23.75 149.84-23.75L149.84-23.75Q151.99-23.75 153.19-23 154.39-22.25 154.39-21.05L154.39-21.05Q154.39-20 153.66-18.88 152.94-17.75 151.84-16.98 150.74-16.2 149.69-16.1L149.69-16.1Q148.69-16.1 148.34-16.35 147.99-16.6 147.99-17.1L147.99-17.1 148.29-18.75Q144.29-17.65 141.04-13.45L141.04-13.45 138.14-1.9ZM158.28 11.35Q155.99 11.35 153.96 10.35 151.94 9.35 150.56 7.78 149.19 6.2 148.59 4.6L148.59 4.6Q148.64 3.7 149.46 2.83 150.28 1.95 152.34 1.95L152.34 1.95Q152.99 1.95 153.46 2.45 153.94 2.95 154.53 4.05L154.53 4.05Q155.34 5.55 156.21 6.38 157.09 7.2 158.64 7.2L158.64 7.2Q160.39 7.2 162.01 5.83 163.64 4.45 164.81 2.1 165.99-0.25 166.44-3.1L166.44-3.1Q165.34-1.6 163.91-0.8 162.49 0 161.24 0L161.24 0Q157.24 0 154.91-1.78 152.59-3.55 152.59-8.1L152.59-8.1Q152.59-12.2 154.86-15.75 157.14-19.3 160.94-21.4 164.74-23.5 169.09-23.5L169.09-23.5Q171.94-23.5 173.31-22.35 174.69-21.2 174.99-19.45L174.99-19.45Q175.84-19.05 175.89-18.65L175.89-18.65Q175.89-18.5 175.69-17.6L175.69-17.6Q174.74-13.5 171.69-1.4L171.69-1.4 171.14 0.8Q169.89 5.65 166.36 8.5 162.84 11.35 158.28 11.35L158.28 11.35ZM169.59-18.35Q169.19-19.05 168.81-19.25 168.44-19.45 167.69-19.45L167.69-19.45Q165.34-19.45 163.14-17.93 160.94-16.4 159.59-13.98 158.24-11.55 158.24-9L158.24-9Q158.24-7.15 158.91-5.8 159.59-4.45 161.09-4.25L161.09-4.25Q163.09-4.6 164.86-6.05 166.64-7.5 167.28-9.8L167.28-9.8 169.59-18.35ZM197.18-2.6Q197.28-1.3 197.53-0.25L197.53-0.25Q197.43 0.05 196.66 0.35 195.88 0.65 195.33 0.65L195.33 0.65Q193.53 0.65 192.76 0.13 191.98-0.4 191.98-1.45L191.98-1.45Q191.98-2.45 192.18-3.45L192.18-3.45Q191.08-1.95 188.96-0.98 186.83 0 185.53 0L185.53 0Q182.18 0 179.96-1.95 177.73-3.9 177.73-8.2L177.73-8.2Q177.73-12.25 179.66-15.83 181.58-19.4 184.98-21.58 188.38-23.75 192.53-23.75L192.53-23.75Q193.33-23.75 194.63-23.33 195.93-22.9 197.26-21.88 198.58-20.85 199.48-19.25L199.48-19.25Q199.88-19.25 200.43-18.85 200.98-18.45 200.98-18.05L200.98-18.05Q200.98-17.6 200.83-17.15L200.83-17.15 197.18-2.6ZM194.93-16.6Q194.63-17.7 193.76-18.45 192.88-19.2 192.18-19.2L192.18-19.2Q189.88-19.2 187.86-17.57 185.83-15.95 184.58-13.55 183.33-11.15 183.33-9L183.33-9Q183.33-6.9 183.83-5.55 184.33-4.2 185.78-4.2L185.78-4.2Q187.03-4.2 188.66-4.95 190.28-5.7 191.56-6.98 192.83-8.25 193.23-9.65L193.23-9.65 194.93-16.6ZM206.33-22.85Q206.18-23 206.18-23.2L206.18-23.2Q206.18-23.7 207.28-24.03 208.38-24.35 210.33-24.35L210.33-24.35Q212.13-24.35 212.98-23.43 213.83-22.5 213.98-21.2L213.98-21.2 213.08-17.95Q214.13-19.4 216.03-20.73 217.93-22.05 219.88-22.85 221.83-23.65 223.08-23.65L223.08-23.65Q225.73-23.65 226.93-22.68 228.13-21.7 228.13-19.6L228.13-19.6Q225.18-11.9 224.23-3L224.23-3 224.93-0.55Q224.33 0.6 223.25 1.28 222.18 1.95 220.13 1.95L220.13 1.95Q218.93 1.95 218.38 1.15 217.83 0.35 217.83-0.85L217.83-0.85Q217.83-4.2 218.81-8.22 219.78-12.25 221.08-16.45L221.08-16.45Q221.58-18.05 221.58-18.1L221.58-18.1Q221.58-18.8 220.78-18.8L220.78-18.8Q219.68-18.8 217.46-17.25 215.23-15.7 212.88-12.03 210.53-8.35 209.08-2.4L209.08-2.4Q208.98-2.1 208.83-1.3 208.68-0.5 208.03-0.18 207.38 0.15 205.93 0.15L205.93 0.15Q204.28 0.15 203.5-0.2 202.73-0.55 202.73-1.7L202.73-1.7Q202.88-2.4 203.18-3.4L203.18-3.4Q206.08-15.05 207.63-21.35L207.63-21.35 206.33-22.85ZM235.88-29.7Q235.88-31.25 236.85-32.45 237.83-33.65 239.58-33.65L239.58-33.65Q241.43-33.65 242.8-32.5 244.18-31.35 244.18-29.9L244.18-29.9Q244.18-28.45 242.78-27.4 241.38-26.35 239.53-26.35L239.53-26.35Q237.73-26.35 236.8-27.28 235.88-28.2 235.88-29.7L235.88-29.7ZM241.13-20.85Q238.48-10.05 237.08-4.6L237.08-4.6Q236.88-3.8 236.88-2.85L236.88-2.85 236.93-1.45Q236.93-0.6 236.4-0.25 235.88 0.1 234.18 0.15L234.18 0.15Q232.53 0.15 231.68-0.2 230.83-0.55 230.83-1.7L230.83-1.7Q230.83-2.25 232.1-7.55 233.38-12.85 235.58-21.35L235.58-21.35 234.43-22.85Q234.28-23 234.28-23.2L234.28-23.2Q234.28-23.7 235.38-24.03 236.48-24.35 238.43-24.35L238.43-24.35Q240.13-24.35 240.6-23.38 241.08-22.4 241.13-20.85L241.13-20.85ZM265.73-5.9Q265.13-4.3 263.38-2.68 261.63-1.05 258.93 0 256.23 1.05 253.03 1.05L253.03 1.05Q248.13 1.05 245.78-0.98 243.43-3 243.43-6.25L243.43-6.25Q243.43-10.95 245.83-14.98 248.23-19 252.28-21.35 256.32-23.7 260.93-23.7L260.93-23.7Q263.78-23.7 265.65-22.03 267.53-20.35 267.53-17.5L267.53-17.5Q267.53-16.4 266.63-15.68 265.73-14.95 264.23-14.95L264.23-14.95Q263.03-14.95 262.6-15.5 262.18-16.05 262.18-16.95L262.18-16.95 262.23-18.1Q262.23-18.7 261.57-19.07 260.93-19.45 260.18-19.45L260.18-19.45Q258.63-19.45 256-17.6 253.38-15.75 251.4-12.73 249.43-9.7 249.43-6.25L249.43-6.25Q249.43-4.85 250.53-4.1 251.63-3.35 253.78-3.35L253.78-3.35Q255.13-3.35 256.88-3.9 258.63-4.45 259.07-5.3L259.07-5.3Q260.78-8.4 262.18-8.4L262.18-8.4Q264.23-8.4 264.95-7.63 265.68-6.85 265.73-5.9L265.73-5.9Z" opacity="1" transform="matrix(1,0,0,1,0,0)" fill="#398378" class="wordmark-text-0" data-fill-palette-color="primary" id="text-0"></path></svg></g></svg></g></svg></g></svg></g><g><svg viewBox="0 0 175.44573840193277 175.4970249379932" height="175.4970249379932" width="175.44573840193277"><g><svg xmlns="http://www.w3.org/2000/svg" xmlns:xlink="http://www.w3.org/1999/xlink" version="1.1" x="0" y="0" viewBox="16.45526686770219 18.932613395966296 56.5508555812774 56.5673866040337" style="enable-background:new 0 0 91 91;" xml:space="preserve" height="175.4970249379932" width="175.44573840193277" class="icon-icon-0" data-fill-palette-color="accent" id="icon-0"><g fill="#398378" data-fill-palette-color="accent"><path d="M69.7 42c2-2.3 3.1-5.4 3.1-8.8 0-4.3-1.6-8.1-4.6-10.6-3-2.5-7.1-3.4-11.3-2.5-2.8 0.6-5.3 1.9-7.1 3.8-0.6-1.1-1.5-2.1-2.6-2.9-2.4-1.8-5.5-2.5-8.2-1.8-3.7 1-6.5 4.4-7.4 8.2-2.6-1.7-6-2.2-8.9-1-4.3 1.8-6.6 7.8-6.2 12.5 0.6 7.7 4 15.1 10.1 21.4 4.3-5.5 9.6-11 15.1-15.8 1.5-4.3 0.9-6.3 0-7.7-0.5-0.8-0.2-1.8 0.5-2.3 0.8-0.5 1.8-0.2 2.3 0.5 1.1 1.8 1.6 3.7 1.4 5.9 4.8-3.8 9.6-7.1 14-9.2 0.8-0.4 1.8-0.1 2.3 0.8 0.4 0.8 0.1 1.8-0.8 2.3-2.3 1.2-4.8 2.7-7.4 4.4 1.1 0.2 2.1 0.7 3.2 1.4 0.8 0.5 0.9 1.6 0.4 2.4-0.3 0.5-0.9 0.7-1.4 0.7-0.3 0-0.7-0.1-1-0.3-1.5-1-3-1.2-5.5-1-3.1 2.4-6.3 5.1-9.3 8 5.1 0.8 11.2 2.8 13.7 4.4 0.8 0.5 1 1.5 0.5 2.3-0.3 0.5-0.9 0.8-1.4 0.8-0.3 0-0.6-0.1-0.9-0.3-2.4-1.5-9.9-3.9-15-4.2-2.9 2.9-5.6 5.9-8 9l6.9 3.7c1.6 0.9 3.1 1.7 4.4 2.4C50 73.6 52.4 75 57 75.4c0.5 0 1 0.1 1.4 0.1 4.5 0 7.6-1.9 9.5-3.6 3-2.7 4.3-6.2 4.4-8.4 0-2.9-1.3-5.7-3.4-7.7 2-1.2 3.6-3.3 4-5.7C73.4 47.1 72.1 43.9 69.7 42z" fill="#398378" data-fill-palette-color="accent"></path><path d="M27.5 61.2c-0.3-0.3-0.5-0.5-0.8-0.8-1.4 1.8-2.7 3.6-3.9 5.4-0.5 0.8-0.3 1.8 0.5 2.3 0.3 0.2 0.6 0.3 0.9 0.3 0.5 0 1.1-0.3 1.4-0.7 1.2-1.7 2.5-3.5 3.9-5.3l-1.6-0.9C27.8 61.4 27.6 61.3 27.5 61.2z" fill="#398378" data-fill-palette-color="accent"></path></g></svg></g></svg></g></svg></g></svg></g><defs></defs></svg><rect width="395.52" height="118.29182579338442" fill="none" stroke="none" visibility="hidden"></rect></g></svg></g></svg>